<svg width="24px" height="24px" viewBox="-2.78 -2.78 22 22" version="1.1" xmlns="http://www.w3.org/2000/svg" xmlns:xlink="http://www.w3.org/1999/xlink" class="Icon_icon-svg_VCCVf">
    <g fill="currentColor">
        <path d="M11.4285714,10.0571429 L10.7017143,10.0571429 L10.4502857,9.80571429 C11.3462857,8.768 11.8857143,7.41942857 11.8857143,5.94285714 C11.8857143,2.66057143 9.22514286,0 5.94285714,0 C2.66057143,0 0,2.66057143 0,5.94285714 C0,9.22514286 2.66057143,11.8857143 5.94285714,11.8857143 C7.41942857,11.8857143 8.768,11.3462857 9.80571429,10.4548571 L10.0571429,10.7062857 L10.0571429,11.4285714 L14.6285714,15.9908571 L15.9908571,14.6285714 L11.4285714,10.0571429 Z M5.94285714,10.0571429 C3.67085714,10.0571429 1.82857143,8.21485714 1.82857143,5.94285714 C1.82857143,3.67085714 3.67085714,1.82857143 5.94285714,1.82857143 C8.21485714,1.82857143 10.0571429,3.67085714 10.0571429,5.94285714 C10.0571429,8.21485714 8.21485714,10.0571429 5.94285714,10.0571429 Z"></path>
    </g>
</svg>