<svg width="24px" height="24px" viewBox="-4 -4 24 24" version="1.1" xmlns="http://www.w3.org/2000/svg" xmlns:xlink="http://www.w3.org/1999/xlink" class="Icon_icon-svg_VCCVf">
    <g fill="currentColor" fill-rule="nonzero">
        <path d="M0,4 L4,4 L4,0 L0,0 L0,4 Z M6,16 L10,16 L10,12 L6,12 L6,16 Z M0,16 L4,16 L4,12 L0,12 L0,16 Z M0,10 L4,10 L4,6 L0,6 L0,10 Z M6,10 L10,10 L10,6 L6,6 L6,10 Z M12,0 L12,4 L16,4 L16,0 L12,0 Z M6,4 L10,4 L10,0 L6,0 L6,4 Z M12,10 L16,10 L16,6 L12,6 L12,10 Z M12,16 L16,16 L16,12 L12,12 L12,16 Z"></path>
    </g>
</svg>