<svg width="24px" height="24px" viewBox="-1.4 -1.4 20 20" version="1.1" xmlns="http://www.w3.org/2000/svg" xmlns:xlink="http://www.w3.org/1999/xlink" class="Icon_icon-svg_VCCVf">
    <g fill="currentColor" fill-rule="nonzero">
        <path d="M8.66666667,0.333333333 C4.0625,0.333333333 0.333333333,4.0625 0.333333333,8.66666667 C0.333333333,13.2708333 4.0625,17 8.66666667,17 C13.2708333,17 17,13.2708333 17,8.66666667 C17,4.0625 13.2708333,0.333333333 8.66666667,0.333333333 Z M8.66666667,2.83333333 C10.0458333,2.83333333 11.1666667,3.95416667 11.1666667,5.33333333 C11.1666667,6.71666667 10.0458333,7.83333333 8.66666667,7.83333333 C7.2875,7.83333333 6.16666667,6.71666667 6.16666667,5.33333333 C6.16666667,3.95416667 7.2875,2.83333333 8.66666667,2.83333333 Z M8.66666667,14.6666667 C6.57916667,14.6666667 4.74583333,13.6 3.66666667,11.9833333 C3.6875,10.3291667 7.00416667,9.41666667 8.66666667,9.41666667 C10.3291667,9.41666667 13.6416667,10.3291667 13.6666667,11.9833333 C12.5875,13.6 10.7541667,14.6666667 8.66666667,14.6666667 Z"></path>
    </g>
</svg>